<mxfile host="app.diagrams.net" modified="2021-06-04T03:38:22.144Z" agent="5.0 (Windows NT 10.0; Win64; x64) AppleWebKit/537.36 (KHTML, like Gecko) Chrome/91.0.4472.77 Safari/537.36 Edg/91.0.864.37" etag="s9OR7y76B1ZtTfCkOSnr" version="14.7.4" type="github" pages="3">
  <diagram id="gPRDPesdqo6uq8wIgcB7" name="Operational">
    <mxGraphModel dx="1438" dy="585" grid="0" gridSize="10" guides="1" tooltips="1" connect="1" arrows="1" fold="1" page="0" pageScale="1" pageWidth="827" pageHeight="1169" math="0" shadow="0">
      <root>
        <mxCell id="0" />
        <mxCell id="1" parent="0" />
        <mxCell id="3dQUPQMiae65iK-HyAxC-3" value="" style="edgeStyle=orthogonalEdgeStyle;rounded=0;orthogonalLoop=1;jettySize=auto;html=1;" parent="1" source="3dQUPQMiae65iK-HyAxC-1" target="3dQUPQMiae65iK-HyAxC-2" edge="1">
          <mxGeometry relative="1" as="geometry" />
        </mxCell>
        <mxCell id="3dQUPQMiae65iK-HyAxC-1" value="&lt;b&gt;Survey for gathering information about people&#39;s learning needs&lt;/b&gt;" style="rounded=1;whiteSpace=wrap;html=1;" parent="1" vertex="1">
          <mxGeometry x="-80" width="160" height="80" as="geometry" />
        </mxCell>
        <mxCell id="3dQUPQMiae65iK-HyAxC-5" value="" style="edgeStyle=orthogonalEdgeStyle;rounded=0;orthogonalLoop=1;jettySize=auto;html=1;" parent="1" source="3dQUPQMiae65iK-HyAxC-2" target="3dQUPQMiae65iK-HyAxC-4" edge="1">
          <mxGeometry relative="1" as="geometry" />
        </mxCell>
        <mxCell id="3dQUPQMiae65iK-HyAxC-2" value="&lt;b&gt;Give idea of course based on previous data and experience&lt;/b&gt;" style="rounded=1;whiteSpace=wrap;html=1;" parent="1" vertex="1">
          <mxGeometry x="-80" y="120" width="160" height="80" as="geometry" />
        </mxCell>
        <mxCell id="3dQUPQMiae65iK-HyAxC-7" value="" style="edgeStyle=orthogonalEdgeStyle;rounded=0;orthogonalLoop=1;jettySize=auto;html=1;" parent="1" source="3dQUPQMiae65iK-HyAxC-4" target="3dQUPQMiae65iK-HyAxC-6" edge="1">
          <mxGeometry relative="1" as="geometry" />
        </mxCell>
        <mxCell id="3dQUPQMiae65iK-HyAxC-4" value="&lt;b&gt;Offer free course trials&lt;/b&gt;" style="rounded=1;whiteSpace=wrap;html=1;" parent="1" vertex="1">
          <mxGeometry x="-80" y="240" width="160" height="80" as="geometry" />
        </mxCell>
        <mxCell id="3dQUPQMiae65iK-HyAxC-9" value="" style="edgeStyle=orthogonalEdgeStyle;rounded=0;orthogonalLoop=1;jettySize=auto;html=1;exitX=0.5;exitY=1;exitDx=0;exitDy=0;" parent="1" source="3dQUPQMiae65iK-HyAxC-6" edge="1">
          <mxGeometry relative="1" as="geometry">
            <mxPoint y="450" as="sourcePoint" />
            <mxPoint y="480" as="targetPoint" />
          </mxGeometry>
        </mxCell>
        <mxCell id="3dQUPQMiae65iK-HyAxC-6" value="&lt;b&gt;Receive and analyze user feedback&lt;/b&gt;" style="rounded=1;whiteSpace=wrap;html=1;" parent="1" vertex="1">
          <mxGeometry x="-80" y="360" width="160" height="80" as="geometry" />
        </mxCell>
        <mxCell id="3dQUPQMiae65iK-HyAxC-11" style="edgeStyle=orthogonalEdgeStyle;rounded=0;orthogonalLoop=1;jettySize=auto;html=1;exitX=1;exitY=0.5;exitDx=0;exitDy=0;entryX=1;entryY=0.5;entryDx=0;entryDy=0;" parent="1" source="3dQUPQMiae65iK-HyAxC-10" target="3dQUPQMiae65iK-HyAxC-2" edge="1">
          <mxGeometry relative="1" as="geometry">
            <Array as="points">
              <mxPoint x="160" y="520" />
              <mxPoint x="160" y="160" />
            </Array>
          </mxGeometry>
        </mxCell>
        <mxCell id="3dQUPQMiae65iK-HyAxC-14" value="" style="edgeStyle=orthogonalEdgeStyle;rounded=0;orthogonalLoop=1;jettySize=auto;html=1;" parent="1" source="3dQUPQMiae65iK-HyAxC-10" target="3dQUPQMiae65iK-HyAxC-13" edge="1">
          <mxGeometry relative="1" as="geometry" />
        </mxCell>
        <mxCell id="3dQUPQMiae65iK-HyAxC-10" value="&lt;b&gt;Feedback rate&lt;br&gt;&amp;nbsp;&amp;gt;= 8.0 / 10.0&lt;/b&gt;" style="rhombus;whiteSpace=wrap;html=1;" parent="1" vertex="1">
          <mxGeometry x="-80" y="480" width="160" height="80" as="geometry" />
        </mxCell>
        <mxCell id="3dQUPQMiae65iK-HyAxC-12" value="&lt;b&gt;NO&lt;/b&gt;" style="text;html=1;strokeColor=none;fillColor=none;align=center;verticalAlign=middle;whiteSpace=wrap;rounded=0;" parent="1" vertex="1">
          <mxGeometry x="100" y="500" width="40" height="20" as="geometry" />
        </mxCell>
        <mxCell id="3dQUPQMiae65iK-HyAxC-13" value="&lt;b&gt;Development&lt;/b&gt;" style="rounded=0;whiteSpace=wrap;html=1;" parent="1" vertex="1">
          <mxGeometry x="-60" y="600" width="120" height="60" as="geometry" />
        </mxCell>
        <mxCell id="3dQUPQMiae65iK-HyAxC-15" value="&lt;b&gt;YES&lt;/b&gt;" style="text;html=1;strokeColor=none;fillColor=none;align=center;verticalAlign=middle;whiteSpace=wrap;rounded=0;" parent="1" vertex="1">
          <mxGeometry y="570" width="40" height="20" as="geometry" />
        </mxCell>
      </root>
    </mxGraphModel>
  </diagram>
  <diagram id="6sC2qagaM8y4kDhgFE7w" name="Tacial">
    <mxGraphModel dx="1038" dy="585" grid="1" gridSize="10" guides="1" tooltips="1" connect="1" arrows="1" fold="1" page="1" pageScale="1" pageWidth="1169" pageHeight="827" math="0" shadow="0">
      <root>
        <mxCell id="3wZuroxxw7p6bcASi7WG-0" />
        <mxCell id="3wZuroxxw7p6bcASi7WG-1" parent="3wZuroxxw7p6bcASi7WG-0" />
      </root>
    </mxGraphModel>
  </diagram>
  <diagram id="eBIRk7OB-AK6WHOwaeRy" name="Strategic ">
    <mxGraphModel dx="1038" dy="585" grid="1" gridSize="10" guides="1" tooltips="1" connect="1" arrows="1" fold="1" page="1" pageScale="1" pageWidth="1169" pageHeight="827" math="0" shadow="0">
      <root>
        <mxCell id="PY9u8hioUcjcZ01kOPtT-0" />
        <mxCell id="PY9u8hioUcjcZ01kOPtT-1" parent="PY9u8hioUcjcZ01kOPtT-0" />
      </root>
    </mxGraphModel>
  </diagram>
</mxfile>
